<?xml version="1.0" encoding="utf-8"?><svg xmlns="http://www.w3.org/2000/svg" xmlns:xlink="http://www.w3.org/1999/xlink"><symbol viewBox="0 0 31 31" id="arrow" xmlns="http://www.w3.org/2000/svg"><g clip-path="url(#aaclip0)"><path d="M23.517 30.621a1.29 1.29 0 000-1.826L10.222 15.5 23.517 2.205A1.29 1.29 0 1021.691.38L7.483 14.587a1.288 1.288 0 000 1.826L21.69 30.621a1.29 1.29 0 001.826 0z"/></g><defs><clipPath id="aaclip0"><path transform="rotate(90 15.5 15.5)" d="M0 0h31v31H0z"/></clipPath></defs></symbol><symbol viewBox="0 0 12 7" id="arrow-down" xmlns="http://www.w3.org/2000/svg"><path d="M1 .5l5 5 5-5"/></symbol><symbol viewBox="0 0 18 18" id="checked" xmlns="http://www.w3.org/2000/svg"><path d="M9 0C4.038 0 0 4.038 0 9s4.038 9 9 9 9-4.038 9-9-4.038-9-9-9zm5.03 6.632l-5.752 5.706a.885.885 0 01-1.24.023L3.992 9.586a.915.915 0 01-.067-1.263.892.892 0 011.263-.045l2.413 2.21 5.143-5.142a.899.899 0 011.286 0 .899.899 0 010 1.286z"/></symbol><symbol viewBox="0 0 32 33" id="clock" xmlns="http://www.w3.org/2000/svg"><path d="M5.742 6.742A13.712 13.712 0 001.7 16.5a13.71 13.71 0 004.042 9.758l.21-.21-.21.21A13.712 13.712 0 0015.5 30.3c2.523 0 4.992-.688 7.14-1.989a1.355 1.355 0 00-1.403-2.317A11.07 11.07 0 0115.5 27.59c-6.115 0-11.09-4.976-11.09-11.091 0-6.115 4.975-11.09 11.09-11.09s11.09 4.975 11.09 11.09c0 2.186-.65 4.314-1.88 6.155a1.355 1.355 0 102.252 1.506l-.25-.167.25.167A13.747 13.747 0 0029.3 16.5c0-3.685-1.436-7.152-4.042-9.758l-.21.21.21-.21A13.712 13.712 0 0015.5 2.7a13.712 13.712 0 00-9.758 4.042z"/><path d="M11.048 21.952l.21-.21-.21.21a1.312 1.312 0 001.86 0l-.212-.212.213.212 4.021-4.022c.247-.246.386-.581.386-.93V8.875a1.316 1.316 0 10-2.632 0v7.58l-3.636 3.636a1.316 1.316 0 000 1.861z"/></symbol><symbol viewBox="0 0 18 18" id="company" xmlns="http://www.w3.org/2000/svg"><g clip-path="url(#aeclip0)"><path d="M11.542 0H6.458c-.81 0-1.504.499-1.794 1.205h8.672A1.942 1.942 0 0011.542 0zm2.259 2.26H4.2c-1.07 0-1.94.87-1.94 1.939v13.274c0 .29.236.527.528.527h3.426v-2.504c0-1.07.87-1.94 1.94-1.94h1.694c1.07 0 1.94.87 1.94 1.94V18h3.426a.527.527 0 00.528-.527V4.199c0-1.07-.87-1.94-1.94-1.94zm-7.817 9.937a.531.531 0 01-.746 0 .53.53 0 010-.745.53.53 0 01.746 0 .53.53 0 010 .745zm0-2.26a.53.53 0 01-.746 0 .53.53 0 010-.745.53.53 0 01.746 0 .531.531 0 010 .746zm0-2.259a.531.531 0 01-.9-.373.53.53 0 01.527-.527c.139 0 .274.056.373.154a.531.531 0 010 .746zm0-2.259a.531.531 0 01-.746 0 .531.531 0 010-.746.53.53 0 01.746 0 .53.53 0 010 .746zm2.259 6.778a.531.531 0 01-.746 0 .531.531 0 010-.745.53.53 0 01.9.373.53.53 0 01-.154.372zm0-2.26a.53.53 0 01-.746 0 .531.531 0 010-.745.532.532 0 01.746 0 .531.531 0 010 .746zm0-2.259a.532.532 0 01-.746 0 .531.531 0 010-.746.532.532 0 01.746 0 .531.531 0 010 .746zm0-2.259a.532.532 0 01-.746 0 .531.531 0 010-.746.53.53 0 01.746 0 .531.531 0 010 .746zm2.26 6.778a.531.531 0 01-.746 0 .531.531 0 010-.745.531.531 0 01.372-.155.532.532 0 01.528.527.53.53 0 01-.155.373zm0-2.26a.53.53 0 01-.746 0 .531.531 0 010-.745.531.531 0 01.745 0 .53.53 0 010 .746zm-.9-2.632c0-.138.056-.274.154-.373a.531.531 0 01.745 0 .532.532 0 010 .746.531.531 0 01-.745 0 .531.531 0 01-.155-.373zm.9-1.886a.53.53 0 01-.746 0 .531.531 0 010-.746.53.53 0 01.745 0 .53.53 0 010 .746zm2.259 6.778a.531.531 0 01-.746 0 .53.53 0 010-.745.53.53 0 01.746 0 .53.53 0 010 .745zm0-2.26a.53.53 0 01-.746 0 .53.53 0 010-.745.53.53 0 01.746 0 .531.531 0 010 .746zm0-2.259a.53.53 0 01-.9-.373.53.53 0 01.527-.527.53.53 0 01.373.154.531.531 0 010 .746zm0-2.259a.532.532 0 01-.746 0 .53.53 0 010-.746.529.529 0 01.746 0 .53.53 0 010 .746z"/><path d="M9.847 14.611h-.32V18h1.205v-2.504a.886.886 0 00-.885-.885zm-2.579.885V18h1.205v-3.389h-.32a.886.886 0 00-.885.885z"/></g><defs><clipPath id="aeclip0"><path d="M0 0h18v18H0z"/></clipPath></defs></symbol><symbol viewBox="0 0 18 18" id="courthouse" xmlns="http://www.w3.org/2000/svg"><g clip-path="url(#afclip0)"><path d="M17.473 16.945h-.528v-.694a.395.395 0 00-.395-.396H1.45a.395.395 0 00-.395.396v.694H.527a.527.527 0 100 1.055h16.946a.527.527 0 100-1.055zM2.11 10.582h3.199v4.219h-3.2v-4.219zm14.835-5.801a.528.528 0 00-.265-.458L9.262.07a.527.527 0 00-.524 0L1.32 4.323a.528.528 0 00-.265.458v1.582h15.89V4.781zM9 5.31c-.872 0-1.582-.71-1.582-1.582 0-.873.71-1.582 1.582-1.582.872 0 1.582.71 1.582 1.582 0 .872-.71 1.582-1.582 1.582z"/><path d="M9 3.2a.528.528 0 100 1.055.528.528 0 000-1.056zm8.473 4.218H.527A.527.527 0 000 7.945V9c0 .291.236.527.527.527h16.946A.527.527 0 0018 9V7.945a.527.527 0 00-.527-.527zM7.418 10.582h3.164v4.219H7.418v-4.219zm5.273 0h3.2v4.219h-3.2v-4.219z"/></g><defs><clipPath id="afclip0"><path d="M0 0h18v18H0z"/></clipPath></defs></symbol><symbol viewBox="0 0 18 18" id="document" xmlns="http://www.w3.org/2000/svg"><path d="M11.602 5.273c-.679 0-1.23-.552-1.23-1.23V0H4.077a1.936 1.936 0 00-1.933 1.934v14.132c0 1.067.867 1.934 1.933 1.934h9.844a1.936 1.936 0 001.933-1.934V5.273h-4.253zm-6.575 7.383h2.557a.527.527 0 010 1.055H5.027a.527.527 0 010-1.055zM4.5 10.371c0-.291.236-.527.527-.527h7.735a.527.527 0 110 1.054H5.027a.527.527 0 01-.527-.527zm8.262-3.34a.527.527 0 110 1.055H5.027a.527.527 0 010-1.055h7.735z"/><path d="M11.426 4.043c0 .097.079.176.176.176h4.018a1.93 1.93 0 00-.37-.483L11.86.529a1.939 1.939 0 00-.434-.31v3.824z"/></symbol><symbol viewBox="0 0 20 20" id="document-light" xmlns="http://www.w3.org/2000/svg"><path d="M2.73.43v19.14h9.977l4.563-4.52V.43H2.73zm.774.816h12.95V14.48h-3.91a.405.405 0 00-.407.407v3.867H3.504V1.246zm9.45 16.942v-2.934h2.933l-2.934 2.934z"/><path d="M14.254 4.012H5.66v.816h8.594v-.816zm0 3.464H5.66v.817h8.594v-.816zm0 3.462H5.66v.816h8.594v-.816z"/></symbol><symbol viewBox="0 0 20 20" id="facebook" xmlns="http://www.w3.org/2000/svg"><path d="M17 1H3c-1.1 0-2 .9-2 2v14c0 1.101.9 2 2 2h7v-7H8V9.525h2v-2.05c0-2.164 1.212-3.684 3.766-3.684l1.803.002v2.605h-1.197c-.994 0-1.372.746-1.372 1.438v1.69h2.568L15 12h-2v7h4c1.1 0 2-.899 2-2V3c0-1.1-.9-2-2-2z"/></symbol><symbol viewBox="0 0 18 18" id="free-questions" xmlns="http://www.w3.org/2000/svg"><path d="M8.08 8.607c0 .322-.246.529-.66.529h-.326V8.12c.06-.01.174-.027.375-.027.382.007.611.176.611.513zM18 9c0 .698-.274 1.355-.765 1.848l-1.106 1.105v1.563a2.617 2.617 0 01-2.613 2.613h-1.562l-1.105 1.105A2.601 2.601 0 019 18a2.597 2.597 0 01-1.848-.767L6.047 16.13H4.484a2.601 2.601 0 01-1.848-.764 2.595 2.595 0 01-.765-1.849v-1.564L.766 10.85A2.597 2.597 0 010 9.001a2.6 2.6 0 01.765-1.847L1.87 6.049V4.485a2.616 2.616 0 012.613-2.612h1.563L7.152.766A2.594 2.594 0 019 0c.699 0 1.354.272 1.849.766l1.103 1.104h1.563c.698 0 1.355.272 1.848.765.495.495.765 1.15.765 1.848v1.563l1.106 1.106A2.6 2.6 0 0117.999 9zM5.644 7.507H3.401v3.672h.833V9.702h1.32v-.676h-1.32v-.839h1.413v-.681h-.002zm3.399 3.672c-.07-.142-.185-.62-.3-1.035-.093-.337-.234-.584-.49-.687v-.016c.315-.114.648-.435.648-.904 0-.338-.12-.594-.338-.769-.262-.206-.643-.289-1.188-.289-.442 0-.84.033-1.106.077v3.623h.822V9.735h.252c.338.006.496.131.593.59.11.451.196.751.256.855l.851-.001zm2.799-.68h-1.511v-.873h1.352V8.95h-1.352v-.763h1.435v-.681H9.499v3.672h2.344v-.68zm2.908 0h-1.51v-.873h1.351V8.95H13.24v-.763h1.434v-.681h-2.267v3.672h2.343v-.68z"/></symbol><symbol viewBox="0 0 22 22" id="house" xmlns="http://www.w3.org/2000/svg"><g clip-path="url(#akclip0)"><path d="M21.994 9.517a1.92 1.92 0 00-.67-1.32l-1.902-1.63V1.93a.645.645 0 00-.645-.644H16.2a.637.637 0 00-.636.644v1.32L12.302.472A1.923 1.923 0 009.787.47L.676 8.197a1.933 1.933 0 00-.21 2.728c.535.621 1.391.82 2.121.563v9.865c0 .356.28.644.636.644h15.554a.644.644 0 00.645-.644v-9.865a1.933 1.933 0 002.572-1.971zm-5.15-6.941h1.297V5.46l-1.297-1.105v-1.78zM13.63 20.708H8.38v-5.164h5.25v5.164zm4.511 0h-3.23v-5.8a.644.644 0 00-.645-.645H7.735a.637.637 0 00-.636.645v5.8H3.868V10.561l7.173-6.085 7.1 6.079v10.153zm2.415-10.623a.645.645 0 01-.91.07l-8.183-7.016a.644.644 0 00-.837-.002l-8.272 7.017a.645.645 0 01-.842-.976l9.112-7.728a.642.642 0 01.839 0l9.023 7.726c.27.231.3.639.07.909z"/><path d="M12.977 7.732H9.024a.637.637 0 00-.636.644v3.867c0 .356.28.645.636.645h3.953a.644.644 0 00.644-.645V8.376a.644.644 0 00-.644-.644zm-.636 3.867H9.668V9.021h2.673v2.578zm-.653 6.531a.644.644 0 100-1.289.644.644 0 000 1.289z"/></g><defs><clipPath id="akclip0"><path d="M0 0h22v22H0z"/></clipPath></defs></symbol><symbol viewBox="0 0 18 18" id="info" xmlns="http://www.w3.org/2000/svg"><path d="M9 0C4.037 0 0 4.037 0 9s4.037 9 9 9 9-4.037 9-9-4.037-9-9-9zm0 3.75a.75.75 0 110 1.5.75.75 0 010-1.5zm1.688 10.5H7.312a.75.75 0 110-1.5h.938v-4.5h-.563a.75.75 0 110-1.5H9a.75.75 0 01.75.75v5.25h.938a.75.75 0 110 1.5z"/></symbol><symbol viewBox="0 0 22 22" id="justice" xmlns="http://www.w3.org/2000/svg"><g clip-path="url(#amclip0)"><path d="M4.816 12.934a.645.645 0 01-.645-.645H2.882c0 1.066.867 1.934 1.934 1.934a1.936 1.936 0 001.933-1.934H5.46a.645.645 0 01-.644.645z"/><path d="M2.894 8.207a4.51 4.51 0 001.93 8.593 4.499 4.499 0 004.5-4.64 4.505 4.505 0 00-2.587-3.953A1.938 1.938 0 005.46 6.599V4.64l4.073-.509c.223.444.611.79 1.083.957v13.045h-.644a3.228 3.228 0 00-3.158 2.578H5.46V22h11.602v-1.29h-1.354a3.228 3.228 0 00-3.158-2.577h-.645V5.088A1.94 1.94 0 0013.15 3.68l3.912-.486V5.31a1.937 1.937 0 00-1.29 1.823c0 1.066.868 1.933 1.934 1.933a.645.645 0 11-.644.645h-1.29c0 .84.54 1.557 1.29 1.823v1.4h1.289v-1.4A1.937 1.937 0 0019.64 9.71a1.936 1.936 0 00-1.934-1.934.645.645 0 11.645-.644h1.289c0-.84-.539-1.557-1.29-1.823V3.032l3.346-.416-.16-1.28L12.99 2.4a1.943 1.943 0 00-1.084-.957V0h-1.288v1.443a1.94 1.94 0 00-1.245 1.41L.87 3.914l.16 1.28L4.17 4.8v1.8a1.938 1.938 0 00-1.277 1.608zM14.373 20.71H8.149a1.937 1.937 0 011.823-1.29h2.578c.84 0 1.557.54 1.823 1.29zM11.26 2.62a.645.645 0 11-.001 1.29.645.645 0 01.001-1.29zm-7.09 5.8a.645.645 0 11.645.645H4.17v-.644zm.602 7.09a3.222 3.222 0 01-1.89-5.8v.644h1.933c.67 0 1.26-.342 1.608-.861a3.207 3.207 0 011.61 2.666 3.214 3.214 0 01-3.261 3.352z"/></g><defs><clipPath id="amclip0"><path d="M0 0h22v22H0z"/></clipPath></defs></symbol><symbol viewBox="0 0 18 18" id="law" xmlns="http://www.w3.org/2000/svg"><g clip-path="url(#anclip0)"><path d="M10.313 13.875h-9c-.724 0-1.313.589-1.313 1.313v1.5C0 17.41.589 18 1.313 18h9c.723 0 1.312-.589 1.312-1.313v-1.5c0-.723-.589-1.312-1.313-1.312zm1.193-6.789c.366-.445.672-.898.835-1.315l.015.002a1.3 1.3 0 00.924-.383l.527-.525c.51-.51.51-1.34 0-1.85L11.174.384a1.307 1.307 0 00-1.848 0L8.8.91a1.299 1.299 0 00-.381.934c-.248.1-.46.232-.578.306-.5.318-1.096.813-1.676 1.395-.58.579-1.074 1.173-1.392 1.674a3.581 3.581 0 00-.304.574 1.305 1.305 0 00-.935.381l-.526.527a1.298 1.298 0 00-.383.924c0 .35.136.678.383.924l2.633 2.633c.255.255.59.382.924.382.334 0 .67-.127.924-.382l.526-.527a1.3 1.3 0 00.381-.937c.246-.1.46-.227.575-.301.229-.145.478-.331.736-.541 1.895 2.207 4.602 5.184 5.088 5.67.43.43.994.833 1.595.833.36 0 .734-.144 1.1-.512.136-.135.45-.45.502-.958.055-.552-.222-1.137-.822-1.737-.48-.482-3.45-3.185-5.664-5.086zM7.219 9.86l-.526.526a.184.184 0 01-.257 0L3.803 7.754a.18.18 0 010-.258l.527-.526a.183.183 0 01.258 0L7.22 9.602c.07.07.07.187 0 .258zm2.376-7.898a.183.183 0 010-.257l.526-.527a.181.181 0 01.258 0l2.633 2.633a.183.183 0 010 .258l-.527.526a.184.184 0 01-.258 0L9.595 1.962z"/></g><defs><clipPath id="anclip0"><path d="M0 0h18v18H0z"/></clipPath></defs></symbol><symbol viewBox="0 0 17 17" id="law-book" xmlns="http://www.w3.org/2000/svg"><path d="M7.346 9.192h2.308v.231H7.346v-.23zM3.958 6.23h1.98l-.99-2.653-.99 2.654zm.99 1.311c.52 0 1.043-.233 1.175-.772h-2.34c.132.539.684.772 1.165.772zm-3.354 8.466v.013c0 .54.47.98 1.048.98h11.386c.241 0 .434-.18.434-.4v-1.562H2.642c-.573 0-1.04.434-1.048.97zm6.048-7.353h1.717c-.076-.116-.194-.23-.314-.23h-1.09c-.12 0-.238.114-.313.23zm4.41-5.077l-.99 2.654h1.98l-.99-2.654zM8.847 2.7a.347.347 0 11-.694 0 .347.347 0 01.694 0z"/><path d="M14.97 0H2.03c-.24 0-.453.18-.453.4v14.48c.308-.236.664-.38 1.065-.38H14.97c.24 0 .454-.179.454-.4V.4c0-.22-.213-.4-.454-.4zm-1.718 13.077H3.748a.27.27 0 010-.538h9.504a.27.27 0 010 .538zm-8.235-1.808c0-.149.12-.269.27-.269h6.426a.27.27 0 110 .539H5.287a.27.27 0 01-.269-.27zm7.024-3.197c-1.02 0-1.734-.65-1.734-1.58a.27.27 0 01.173-.25l1.18-3.165H9.3a.89.89 0 01-.53.466v4.342h.275c.412 0 .778.33.893.749a.27.27 0 01.254.275v.776a.268.268 0 01-.26.277H7.067a.268.268 0 01-.26-.277V8.91a.271.271 0 01.254-.275c.115-.418.48-.75.893-.75h.276v-4.34a.89.89 0 01-.532-.467H5.34L6.52 6.24a.27.27 0 01.174.251c0 .93-.718 1.58-1.745 1.58-1.02 0-1.734-.65-1.734-1.58a.27.27 0 01.16-.246l1.322-3.541.003-.008a.22.22 0 01.006-.014l.006-.011.007-.011a.157.157 0 01.014-.022.23.23 0 01.009-.011l.008-.01.01-.01a.52.52 0 01.029-.025l.01-.007a.52.52 0 01.012-.008l.011-.006.012-.006.013-.006.008-.003.003-.001a.285.285 0 01.015-.005l.01-.003.015-.003.012-.002.013-.002.013-.001h.026l.013.001.013.002.013.002.013.003H7.63a.885.885 0 011.74 0h2.616l.015-.003.011-.002.014-.002.012-.001h.027l.013.001.013.002.013.002.013.003.012.003.013.005h.004l.009.005.012.005.013.006a.198.198 0 01.031.02l.012.01.009.008.01.01a.285.285 0 01.017.018l.009.01a.212.212 0 01.014.023l.007.011.006.012a.221.221 0 01.009.021l1.321 3.541a.27.27 0 01.16.246c0 .93-.717 1.58-1.744 1.58z"/><path d="M12.041 7.541c.52 0 1.043-.233 1.175-.772h-2.34c.132.539.684.772 1.165.772z"/></symbol><symbol viewBox="0 0 32 32" id="lawyer" xmlns="http://www.w3.org/2000/svg"><g clip-path="url(#apclip0)"><path d="M16 19.848l-.112.454-.871 3.53.983 4.126.984-4.126-.872-3.53-.112-.454zm15.991 11.084l-1.456-10.34a5.188 5.188 0 00-4.187-4.378l-3.705-.694a8.432 8.432 0 01-2.222 1.979l-.665 2.788L16.964 32h14.099a.938.938 0 00.928-1.068zM11.579 17.499a8.488 8.488 0 01-2.222-1.979l-3.705.694a5.188 5.188 0 00-4.186 4.379L.009 30.932A.938.938 0 00.938 32h14.098l-2.792-11.713-.665-2.788z"/><path d="M22.586 10.287v-.88h-.938c-1.57 0-2.882-.657-3.793-1.9a5.347 5.347 0 01-.144-.204c-1.308 1.376-3.282 2.071-5.892 2.071H9.414v.913a6.61 6.61 0 003.795 5.964l.859 3.601.76-3.083a6.601 6.601 0 002.343 0l.761 3.083.859-3.6a6.612 6.612 0 001.684-1.138 6.568 6.568 0 002.11-4.827z"/><path d="M11.819 7.5c2.674 0 4.384-.813 5.227-2.485a.937.937 0 011.751.216s.153.621.604 1.214c.556.73 1.292 1.086 2.247 1.086h.938v-.945A6.593 6.593 0 0016 0a6.593 6.593 0 00-6.586 6.586v.913h2.405z"/></g><defs><clipPath id="apclip0"><path d="M0 0h32v32H0z"/></clipPath></defs></symbol><symbol viewBox="0 0 18 18" id="paid-questions" xmlns="http://www.w3.org/2000/svg"><path d="M17.546 15.703l-.436-1.52a.528.528 0 01.065-.354A6.01 6.01 0 0018 10.786a6.031 6.031 0 00-5.322-5.981 7.045 7.045 0 01.408 2.85h1.973c.284 0 .528.218.542.502a.527.527 0 01-.527.552H12.94a7.024 7.024 0 01-.53 1.55h2.648c.284 0 .528.218.542.502a.527.527 0 01-.527.553h-3.286c-.42.59-.93 1.113-1.508 1.55h4.779c.284 0 .528.218.542.501a.527.527 0 01-.527.553h-6.19a.524.524 0 01-.312-.102c-.49.19-1.006.326-1.541.403a6.02 6.02 0 007.989 1.766.527.527 0 01.353-.066l1.52.436a.527.527 0 00.653-.652z"/><path d="M6.023 13.236a6.03 6.03 0 006.023-6.022A6.012 6.012 0 006.023 1.19 6.03 6.03 0 000 7.214c0 1.07.285 2.123.825 3.042a.528.528 0 01.065.354l-.436 1.52a.527.527 0 00.652.653l1.52-.436a.526.526 0 01.354.065c.92.54 1.971.824 3.043.824zm0-2.141a.537.537 0 01-.528-.528c-.012-.284.252-.527.528-.527.295 0 .514.242.527.527.013.285-.251.528-.527.528zm-2.02-5.743c0-1.114.906-2.02 2.02-2.02 1.113 0 2.019.906 2.019 2.02 0 .93-.633 1.716-1.492 1.949v1.29a.527.527 0 01-1.055 0V6.843c0-.29.237-.527.528-.527a.966.966 0 000-1.93.966.966 0 00-.965.965.527.527 0 01-1.054 0z"/></symbol><symbol viewBox="0 0 19 19" id="phone" xmlns="http://www.w3.org/2000/svg"><g clip-path="url(#arclip0)"><path d="M18.483 13.944l-2.652-2.651c-.947-.947-2.556-.569-2.935.663-.284.852-1.231 1.325-2.084 1.136-1.893-.474-4.45-2.936-4.924-4.924-.284-.853.284-1.8 1.137-2.084 1.23-.379 1.61-1.988.663-2.935L5.036.497c-.758-.663-1.894-.663-2.557 0L.68 2.297C-1.12 4.19.87 9.208 5.32 13.66c4.45 4.45 9.47 6.534 11.364 4.64l1.799-1.8c.663-.757.663-1.893 0-2.556z"/></g><defs><clipPath id="arclip0"><path d="M0 0h19v19H0z"/></clipPath></defs></symbol><symbol viewBox="0 0 27 27" id="pin" xmlns="http://www.w3.org/2000/svg"><g clip-path="url(#asclip0)"><path d="M21.493 4.624C19.855 1.796 16.944.068 13.708.002a10.1 10.1 0 00-.416 0c-3.236.066-6.147 1.794-7.785 4.622a9.4 9.4 0 00-.123 9.287l6.695 12.255.01.016c.294.512.822.818 1.411.818a1.612 1.612 0 001.42-.834l6.696-12.255a9.4 9.4 0 00-.123-9.287zm-7.993 7.61a3.801 3.801 0 01-3.797-3.796A3.801 3.801 0 0113.5 4.64a3.801 3.801 0 013.797 3.797 3.801 3.801 0 01-3.797 3.796z"/></g><defs><clipPath id="asclip0"><path d="M0 0h27v27H0z"/></clipPath></defs></symbol><symbol viewBox="0 0 18 18" id="publications" xmlns="http://www.w3.org/2000/svg"><path d="M15.429 0H2.57A2.572 2.572 0 000 2.571V15.43A2.572 2.572 0 002.571 18H15.43A2.571 2.571 0 0018 15.429V2.57A2.571 2.571 0 0015.429 0zm-11.7 3.214H8.89a.771.771 0 110 1.543H3.73a.771.771 0 110-1.543zm0 3.343H8.87a.771.771 0 110 1.543H3.73a.771.771 0 110-1.543zm10.542 8.229H3.73a.771.771 0 110-1.543h10.54a.771.771 0 110 1.543zm0-3.343H3.73a.771.771 0 110-1.543h10.54a.771.771 0 110 1.543z"/></symbol><symbol viewBox="0 0 18 18" id="question" xmlns="http://www.w3.org/2000/svg"><path d="M9 0C4.037 0 0 4.037 0 9s4.037 9 9 9 9-4.037 9-9-4.037-9-9-9zm0 14.25a.75.75 0 110-1.5.75.75 0 010 1.5zm1.187-4.769a.753.753 0 00-.437.682v.337a.75.75 0 11-1.5 0v-.337A2.26 2.26 0 019.559 8.12c.764-.352 1.316-1.286 1.316-1.744 0-1.033-.84-1.875-1.875-1.875a1.877 1.877 0 00-1.875 1.875.75.75 0 11-1.5 0A3.38 3.38 0 019 3a3.38 3.38 0 013.375 3.375c0 1.013-.879 2.503-2.188 3.106z"/></symbol><symbol viewBox="0 0 24 24" id="question-decor" xmlns="http://www.w3.org/2000/svg"><g clip-path="url(#avclip0)"><path d="M23.906 21.734l-1.647-4.795a11.773 11.773 0 001.214-5.184 11.665 11.665 0 00-3.37-8.237A11.656 11.656 0 0011.926 0a11.69 11.69 0 00-8.489 3.436 11.69 11.69 0 00-3.436 8.49 11.656 11.656 0 003.516 8.175 11.665 11.665 0 008.219 3.37h.018a11.772 11.772 0 005.184-1.214l4.795 1.648a1.698 1.698 0 001.764-.408 1.698 1.698 0 00.408-1.764zm-1.414.758a.275.275 0 01-.295.068l-5.081-1.746a.712.712 0 00-.564.044 10.332 10.332 0 01-4.8 1.191c-5.603.01-10.239-4.542-10.327-10.145a10.235 10.235 0 013.02-7.46 10.234 10.234 0 017.46-3.02c5.602.09 10.154 4.722 10.145 10.329a10.334 10.334 0 01-1.192 4.798.712.712 0 00-.044.564l1.746 5.081a.275.275 0 01-.068.296z"/><path d="M11.62 17.004c-.371 0-.728.327-.71.711.017.386.312.712.71.712.373 0 .73-.328.712-.712-.017-.385-.312-.711-.711-.711zm0-11.019a3.544 3.544 0 00-3.539 3.54.711.711 0 001.423 0 2.12 2.12 0 012.117-2.117 2.12 2.12 0 012.117 2.116 2.12 2.12 0 01-2.117 2.117.711.711 0 00-.712.712v2.902a.711.711 0 101.423 0v-2.263a3.546 3.546 0 002.829-3.468 3.544 3.544 0 00-3.54-3.54z"/></g><defs><clipPath id="avclip0"><path d="M0 0h24v24H0z"/></clipPath></defs></symbol><symbol viewBox="0 0 20 20" id="question-mark" xmlns="http://www.w3.org/2000/svg"><g clip-path="url(#awclip0)"><path d="M9.73 0c3.46 0 6.865 1.593 6.865 5.404 0 3.515-4.027 4.866-4.892 6.136-.649.945-.432 2.272-2.216 2.272-1.162 0-1.73-.945-1.73-1.81 0-3.219 4.729-3.947 4.729-6.597 0-1.459-.97-2.324-2.593-2.324-3.46 0-2.109 3.567-4.73 3.567-.945 0-1.757-.568-1.757-1.648 0-2.65 3.026-5 6.324-5zm-.135 15.566c1.215 0 2.217 1 2.217 2.218S10.812 20 9.595 20a2.225 2.225 0 01-2.217-2.217 2.227 2.227 0 012.217-2.217z"/></g><defs><clipPath id="awclip0"><path d="M0 0h20v20H0z"/></clipPath></defs></symbol><symbol viewBox="0 0 28 28" id="search" xmlns="http://www.w3.org/2000/svg"><path d="M2.03 25.97a.952.952 0 001.35 0l5.558-5.559a10.476 10.476 0 006.759 2.448c2.818 0 5.47-1.099 7.463-3.092a10.487 10.487 0 003.09-7.463c0-2.818-1.097-5.47-3.09-7.463a10.487 10.487 0 00-7.463-3.091c-2.819 0-5.47 1.098-7.463 3.091a10.487 10.487 0 00-3.092 7.463c0 2.498.863 4.865 2.447 6.758l-5.559 5.56a.954.954 0 000 1.349zm19.78-7.552c-3.37 3.372-8.856 3.371-12.227 0-3.371-3.37-3.371-8.857 0-12.228a8.618 8.618 0 016.114-2.528A8.62 8.62 0 0121.81 6.19c3.37 3.371 3.37 8.857 0 12.228z"/></symbol><symbol viewBox="0 0 28 28" id="star" xmlns="http://www.w3.org/2000/svg"><g clip-path="url(#ayclip0)"><path d="M27.909 10.723a2 2 0 00-1.66-1.415L18.81 8.28l-2.946-7.037a2.02 2.02 0 00-3.73 0L9.19 8.28 1.748 9.308a2.027 2.027 0 00-1.07 3.52l5.607 5-1.152 7.845a2 2 0 00.928 2.013 1.993 1.993 0 002.21-.04l5.728-3.896 5.728 3.9a2.023 2.023 0 003.137-1.973l-1.152-7.848 5.607-5a2.01 2.01 0 00.59-2.106z"/></g><defs><clipPath id="ayclip0"><path d="M0 0h28v28H0z"/></clipPath></defs></symbol><symbol viewBox="0 0 21 20" id="telegram" xmlns="http://www.w3.org/2000/svg"><g clip-path="url(#azclip0)"><path d="M7.899 12.652l-.333 4.654c.476 0 .682-.204.93-.448l2.234-2.12 4.628 3.367c.849.47 1.447.223 1.676-.776l3.038-14.143v-.001c.27-1.247-.453-1.734-1.28-1.428L.934 8.549C-.284 9.02-.266 9.694.727 10l4.566 1.41 10.604-6.592c.5-.328.953-.146.58.182l-8.578 7.652z"/></g><defs><clipPath id="azclip0"><path d="M0 0h20.131v20H0z"/></clipPath></defs></symbol><symbol viewBox="0 0 24 24" id="user" xmlns="http://www.w3.org/2000/svg"><path d="M12 12.889A6.444 6.444 0 1012 0a6.444 6.444 0 000 12.889zm3.054-3.894c-.293.97-1.549 1.698-3.054 1.698s-2.76-.729-3.054-1.698h6.108zm7.835 10.56v2.125c0 .315-.232.68-.52.809C21.255 22.985 18.214 24 12 24c-6.214 0-9.255-1.015-10.37-1.511-.287-.128-.519-.494-.519-.81v-2.123c0-3.184 2.424-5.825 5.517-6.178a.52.52 0 01.31.085A8.604 8.604 0 0012 15.11a8.603 8.603 0 005.063-1.648.516.516 0 01.31-.085c3.092.354 5.516 2.994 5.516 6.178z"/></symbol><symbol viewBox="0 0 20 20" id="vk" xmlns="http://www.w3.org/2000/svg"><g clip-path="url(#bbclip0)"><path fill-rule="evenodd" clip-rule="evenodd" d="M17.802 12.3s1.617 1.597 2.017 2.336c.008.01.014.023.018.035.163.273.203.487.123.645-.135.261-.592.392-.747.403h-2.858c-.199 0-.613-.052-1.117-.4-.385-.269-.768-.712-1.139-1.145-.554-.643-1.033-1.2-1.518-1.2a.546.546 0 00-.18.03c-.367.115-.833.638-.833 2.031 0 .436-.344.684-.585.684H9.674c-.446 0-2.768-.156-4.827-2.327C2.324 10.734.058 5.402.037 5.355c-.142-.345.154-.533.474-.533h2.886c.387 0 .513.234.601.444.102.241.48 1.205 1.1 2.288 1.004 1.762 1.621 2.48 2.114 2.48a.528.528 0 00.264-.07c.644-.355.524-2.655.494-3.129 0-.092 0-1.027-.33-1.479-.237-.324-.639-.45-.882-.496.065-.094.203-.238.38-.323.441-.22 1.238-.252 2.03-.252h.438c.858.012 1.08.067 1.392.146.628.15.64.557.585 1.943-.016.396-.033.842-.033 1.367 0 .112-.005.237-.005.364-.019.711-.044 1.512.458 1.841a.41.41 0 00.217.062c.174 0 .695 0 2.108-2.425.62-1.07 1.1-2.334 1.133-2.429.028-.053.112-.202.214-.262a.479.479 0 01.236-.056h3.395c.37 0 .621.056.67.196.082.227-.016.92-1.566 3.016-.26.35-.49.651-.69.915-1.406 1.844-1.406 1.937.082 3.337z"/></g><defs><clipPath id="bbclip0"><path d="M0 0h20v20H0z"/></clipPath></defs></symbol><symbol viewBox="0 0 21 20" id="whatsapp" xmlns="http://www.w3.org/2000/svg"><g clip-path="url(#bcclip0)"><path d="M10.068 0h-.005C4.513 0 0 4.485 0 10c0 2.188.71 4.215 1.916 5.861L.662 19.576l3.869-1.229A10.025 10.025 0 0010.068 20c5.55 0 10.063-4.486 10.063-10S15.618 0 10.068 0zm5.857 14.121c-.243.681-1.207 1.246-1.976 1.412-.526.11-1.213.2-3.525-.753-2.958-1.217-4.863-4.204-5.011-4.397-.143-.194-1.196-1.582-1.196-3.017 0-1.435.734-2.133 1.03-2.433.242-.247.644-.36 1.029-.36.124 0 .236.007.337.012.296.013.444.03.64.494.242.581.833 2.016.904 2.163.071.148.143.348.042.542-.094.2-.177.288-.325.458-.149.17-.29.3-.438.483-.136.159-.29.329-.118.623.17.287.762 1.246 1.633 2.016 1.123.993 2.034 1.311 2.36 1.446.243.1.532.076.71-.111.225-.242.503-.642.786-1.035.201-.283.455-.318.722-.218.272.094 1.71.8 2.006.947.295.147.49.217.562.34.07.124.07.706-.172 1.388z"/></g><defs><clipPath id="bcclip0"><path d="M0 0h20.131v20H0z"/></clipPath></defs></symbol></svg>