<?xml version="1.0" encoding="utf-8"?><svg xmlns="http://www.w3.org/2000/svg" xmlns:xlink="http://www.w3.org/1999/xlink"><symbol viewBox="0 0 12 7" id="arrow-down" xmlns="http://www.w3.org/2000/svg"><path d="M1 .5l5 5 5-5"/></symbol><symbol viewBox="0 0 18 18" id="checked" xmlns="http://www.w3.org/2000/svg"><path d="M9 0C4.038 0 0 4.038 0 9s4.038 9 9 9 9-4.038 9-9-4.038-9-9-9zm5.03 6.632l-5.752 5.706a.885.885 0 01-1.24.023L3.992 9.586a.915.915 0 01-.067-1.263.892.892 0 011.263-.045l2.413 2.21 5.143-5.142a.899.899 0 011.286 0 .899.899 0 010 1.286z"/></symbol><symbol viewBox="0 0 18 18" id="company" xmlns="http://www.w3.org/2000/svg"><g clip-path="url(#cclip0)"><path d="M11.542 0H6.458c-.81 0-1.504.499-1.794 1.205h8.672A1.942 1.942 0 0011.542 0zm2.259 2.26H4.2c-1.07 0-1.94.87-1.94 1.939v13.274c0 .29.236.527.528.527h3.426v-2.504c0-1.07.87-1.94 1.94-1.94h1.694c1.07 0 1.94.87 1.94 1.94V18h3.426a.527.527 0 00.528-.527V4.199c0-1.07-.87-1.94-1.94-1.94zm-7.817 9.937a.531.531 0 01-.746 0 .53.53 0 010-.745.53.53 0 01.746 0 .53.53 0 010 .745zm0-2.26a.53.53 0 01-.746 0 .53.53 0 010-.745.53.53 0 01.746 0 .531.531 0 010 .746zm0-2.259a.531.531 0 01-.9-.373.53.53 0 01.527-.527c.139 0 .274.056.373.154a.531.531 0 010 .746zm0-2.259a.531.531 0 01-.746 0 .531.531 0 010-.746.53.53 0 01.746 0 .53.53 0 010 .746zm2.259 6.778a.531.531 0 01-.746 0 .531.531 0 010-.745.53.53 0 01.9.373.53.53 0 01-.154.372zm0-2.26a.53.53 0 01-.746 0 .531.531 0 010-.745.532.532 0 01.746 0 .531.531 0 010 .746zm0-2.259a.532.532 0 01-.746 0 .531.531 0 010-.746.532.532 0 01.746 0 .531.531 0 010 .746zm0-2.259a.532.532 0 01-.746 0 .531.531 0 010-.746.53.53 0 01.746 0 .531.531 0 010 .746zm2.26 6.778a.531.531 0 01-.746 0 .531.531 0 010-.745.531.531 0 01.372-.155.532.532 0 01.528.527.53.53 0 01-.155.373zm0-2.26a.53.53 0 01-.746 0 .531.531 0 010-.745.531.531 0 01.745 0 .53.53 0 010 .746zm-.9-2.632c0-.138.056-.274.154-.373a.531.531 0 01.745 0 .532.532 0 010 .746.531.531 0 01-.745 0 .531.531 0 01-.155-.373zm.9-1.886a.53.53 0 01-.746 0 .531.531 0 010-.746.53.53 0 01.745 0 .53.53 0 010 .746zm2.259 6.778a.531.531 0 01-.746 0 .53.53 0 010-.745.53.53 0 01.746 0 .53.53 0 010 .745zm0-2.26a.53.53 0 01-.746 0 .53.53 0 010-.745.53.53 0 01.746 0 .531.531 0 010 .746zm0-2.259a.53.53 0 01-.9-.373.53.53 0 01.527-.527.53.53 0 01.373.154.531.531 0 010 .746zm0-2.259a.532.532 0 01-.746 0 .53.53 0 010-.746.529.529 0 01.746 0 .53.53 0 010 .746z"/><path d="M9.847 14.611h-.32V18h1.205v-2.504a.886.886 0 00-.885-.885zm-2.579.885V18h1.205v-3.389h-.32a.886.886 0 00-.885.885z"/></g><defs><clipPath id="cclip0"><path d="M0 0h18v18H0z"/></clipPath></defs></symbol><symbol viewBox="0 0 18 18" id="courthouse" xmlns="http://www.w3.org/2000/svg"><g clip-path="url(#dclip0)"><path d="M17.473 16.945h-.528v-.694a.395.395 0 00-.395-.396H1.45a.395.395 0 00-.395.396v.694H.527a.527.527 0 100 1.055h16.946a.527.527 0 100-1.055zM2.11 10.582h3.199v4.219h-3.2v-4.219zm14.835-5.801a.528.528 0 00-.265-.458L9.262.07a.527.527 0 00-.524 0L1.32 4.323a.528.528 0 00-.265.458v1.582h15.89V4.781zM9 5.31c-.872 0-1.582-.71-1.582-1.582 0-.873.71-1.582 1.582-1.582.872 0 1.582.71 1.582 1.582 0 .872-.71 1.582-1.582 1.582z"/><path d="M9 3.2a.528.528 0 100 1.055.528.528 0 000-1.056zm8.473 4.218H.527A.527.527 0 000 7.945V9c0 .291.236.527.527.527h16.946A.527.527 0 0018 9V7.945a.527.527 0 00-.527-.527zM7.418 10.582h3.164v4.219H7.418v-4.219zm5.273 0h3.2v4.219h-3.2v-4.219z"/></g><defs><clipPath id="dclip0"><path d="M0 0h18v18H0z"/></clipPath></defs></symbol><symbol viewBox="0 0 18 18" id="document" xmlns="http://www.w3.org/2000/svg"><path d="M11.602 5.273c-.679 0-1.23-.552-1.23-1.23V0H4.077a1.936 1.936 0 00-1.933 1.934v14.132c0 1.067.867 1.934 1.933 1.934h9.844a1.936 1.936 0 001.933-1.934V5.273h-4.253zm-6.575 7.383h2.557a.527.527 0 010 1.055H5.027a.527.527 0 010-1.055zM4.5 10.371c0-.291.236-.527.527-.527h7.735a.527.527 0 110 1.054H5.027a.527.527 0 01-.527-.527zm8.262-3.34a.527.527 0 110 1.055H5.027a.527.527 0 010-1.055h7.735z"/><path d="M11.426 4.043c0 .097.079.176.176.176h4.018a1.93 1.93 0 00-.37-.483L11.86.529a1.939 1.939 0 00-.434-.31v3.824z"/></symbol><symbol viewBox="0 0 20 20" id="document-light" xmlns="http://www.w3.org/2000/svg"><path d="M2.73.43v19.14h9.977l4.563-4.52V.43H2.73zm.774.816h12.95V14.48h-3.91a.405.405 0 00-.407.407v3.867H3.504V1.246zm9.45 16.942v-2.934h2.933l-2.934 2.934z"/><path d="M14.254 4.012H5.66v.816h8.594v-.816zm0 3.464H5.66v.817h8.594v-.816zm0 3.462H5.66v.816h8.594v-.816z"/></symbol><symbol viewBox="0 0 18 18" id="free-questions" xmlns="http://www.w3.org/2000/svg"><path d="M8.08 8.607c0 .322-.246.529-.66.529h-.326V8.12c.06-.01.174-.027.375-.027.382.007.611.176.611.513zM18 9c0 .698-.274 1.355-.765 1.848l-1.106 1.105v1.563a2.617 2.617 0 01-2.613 2.613h-1.562l-1.105 1.105A2.601 2.601 0 019 18a2.597 2.597 0 01-1.848-.767L6.047 16.13H4.484a2.601 2.601 0 01-1.848-.764 2.595 2.595 0 01-.765-1.849v-1.564L.766 10.85A2.597 2.597 0 010 9.001a2.6 2.6 0 01.765-1.847L1.87 6.049V4.485a2.616 2.616 0 012.613-2.612h1.563L7.152.766A2.594 2.594 0 019 0c.699 0 1.354.272 1.849.766l1.103 1.104h1.563c.698 0 1.355.272 1.848.765.495.495.765 1.15.765 1.848v1.563l1.106 1.106A2.6 2.6 0 0117.999 9zM5.644 7.507H3.401v3.672h.833V9.702h1.32v-.676h-1.32v-.839h1.413v-.681h-.002zm3.399 3.672c-.07-.142-.185-.62-.3-1.035-.093-.337-.234-.584-.49-.687v-.016c.315-.114.648-.435.648-.904 0-.338-.12-.594-.338-.769-.262-.206-.643-.289-1.188-.289-.442 0-.84.033-1.106.077v3.623h.822V9.735h.252c.338.006.496.131.593.59.11.451.196.751.256.855l.851-.001zm2.799-.68h-1.511v-.873h1.352V8.95h-1.352v-.763h1.435v-.681H9.499v3.672h2.344v-.68zm2.908 0h-1.51v-.873h1.351V8.95H13.24v-.763h1.434v-.681h-2.267v3.672h2.343v-.68z"/></symbol><symbol viewBox="0 0 18 18" id="info" xmlns="http://www.w3.org/2000/svg"><path d="M9 0C4.037 0 0 4.037 0 9s4.037 9 9 9 9-4.037 9-9-4.037-9-9-9zm0 3.75a.75.75 0 110 1.5.75.75 0 010-1.5zm1.688 10.5H7.312a.75.75 0 110-1.5h.938v-4.5h-.563a.75.75 0 110-1.5H9a.75.75 0 01.75.75v5.25h.938a.75.75 0 110 1.5z"/></symbol><symbol viewBox="0 0 18 18" id="law" xmlns="http://www.w3.org/2000/svg"><g clip-path="url(#iclip0)"><path d="M10.313 13.875h-9c-.724 0-1.313.589-1.313 1.313v1.5C0 17.41.589 18 1.313 18h9c.723 0 1.312-.589 1.312-1.313v-1.5c0-.723-.589-1.312-1.313-1.312zm1.193-6.789c.366-.445.672-.898.835-1.315l.015.002a1.3 1.3 0 00.924-.383l.527-.525c.51-.51.51-1.34 0-1.85L11.174.384a1.307 1.307 0 00-1.848 0L8.8.91a1.299 1.299 0 00-.381.934c-.248.1-.46.232-.578.306-.5.318-1.096.813-1.676 1.395-.58.579-1.074 1.173-1.392 1.674a3.581 3.581 0 00-.304.574 1.305 1.305 0 00-.935.381l-.526.527a1.298 1.298 0 00-.383.924c0 .35.136.678.383.924l2.633 2.633c.255.255.59.382.924.382.334 0 .67-.127.924-.382l.526-.527a1.3 1.3 0 00.381-.937c.246-.1.46-.227.575-.301.229-.145.478-.331.736-.541 1.895 2.207 4.602 5.184 5.088 5.67.43.43.994.833 1.595.833.36 0 .734-.144 1.1-.512.136-.135.45-.45.502-.958.055-.552-.222-1.137-.822-1.737-.48-.482-3.45-3.185-5.664-5.086zM7.219 9.86l-.526.526a.184.184 0 01-.257 0L3.803 7.754a.18.18 0 010-.258l.527-.526a.183.183 0 01.258 0L7.22 9.602c.07.07.07.187 0 .258zm2.376-7.898a.183.183 0 010-.257l.526-.527a.181.181 0 01.258 0l2.633 2.633a.183.183 0 010 .258l-.527.526a.184.184 0 01-.258 0L9.595 1.962z"/></g><defs><clipPath id="iclip0"><path d="M0 0h18v18H0z"/></clipPath></defs></symbol><symbol viewBox="0 0 17 17" id="law-book" xmlns="http://www.w3.org/2000/svg"><path d="M7.346 9.192h2.308v.231H7.346v-.23zM3.958 6.23h1.98l-.99-2.653-.99 2.654zm.99 1.311c.52 0 1.043-.233 1.175-.772h-2.34c.132.539.684.772 1.165.772zm-3.354 8.466v.013c0 .54.47.98 1.048.98h11.386c.241 0 .434-.18.434-.4v-1.562H2.642c-.573 0-1.04.434-1.048.97zm6.048-7.353h1.717c-.076-.116-.194-.23-.314-.23h-1.09c-.12 0-.238.114-.313.23zm4.41-5.077l-.99 2.654h1.98l-.99-2.654zM8.847 2.7a.347.347 0 11-.694 0 .347.347 0 01.694 0z"/><path d="M14.97 0H2.03c-.24 0-.453.18-.453.4v14.48c.308-.236.664-.38 1.065-.38H14.97c.24 0 .454-.179.454-.4V.4c0-.22-.213-.4-.454-.4zm-1.718 13.077H3.748a.27.27 0 010-.538h9.504a.27.27 0 010 .538zm-8.235-1.808c0-.149.12-.269.27-.269h6.426a.27.27 0 110 .539H5.287a.27.27 0 01-.269-.27zm7.024-3.197c-1.02 0-1.734-.65-1.734-1.58a.27.27 0 01.173-.25l1.18-3.165H9.3a.89.89 0 01-.53.466v4.342h.275c.412 0 .778.33.893.749a.27.27 0 01.254.275v.776a.268.268 0 01-.26.277H7.067a.268.268 0 01-.26-.277V8.91a.271.271 0 01.254-.275c.115-.418.48-.75.893-.75h.276v-4.34a.89.89 0 01-.532-.467H5.34L6.52 6.24a.27.27 0 01.174.251c0 .93-.718 1.58-1.745 1.58-1.02 0-1.734-.65-1.734-1.58a.27.27 0 01.16-.246l1.322-3.541.003-.008a.22.22 0 01.006-.014l.006-.011.007-.011a.157.157 0 01.014-.022.23.23 0 01.009-.011l.008-.01.01-.01a.52.52 0 01.029-.025l.01-.007a.52.52 0 01.012-.008l.011-.006.012-.006.013-.006.008-.003.003-.001a.285.285 0 01.015-.005l.01-.003.015-.003.012-.002.013-.002.013-.001h.026l.013.001.013.002.013.002.013.003H7.63a.885.885 0 011.74 0h2.616l.015-.003.011-.002.014-.002.012-.001h.027l.013.001.013.002.013.002.013.003.012.003.013.005h.004l.009.005.012.005.013.006a.198.198 0 01.031.02l.012.01.009.008.01.01a.285.285 0 01.017.018l.009.01a.212.212 0 01.014.023l.007.011.006.012a.221.221 0 01.009.021l1.321 3.541a.27.27 0 01.16.246c0 .93-.717 1.58-1.744 1.58z"/><path d="M12.041 7.541c.52 0 1.043-.233 1.175-.772h-2.34c.132.539.684.772 1.165.772z"/></symbol><symbol viewBox="0 0 18 18" id="paid-questions" xmlns="http://www.w3.org/2000/svg"><path d="M17.546 15.703l-.436-1.52a.528.528 0 01.065-.354A6.01 6.01 0 0018 10.786a6.031 6.031 0 00-5.322-5.981 7.045 7.045 0 01.408 2.85h1.973c.284 0 .528.218.542.502a.527.527 0 01-.527.552H12.94a7.024 7.024 0 01-.53 1.55h2.648c.284 0 .528.218.542.502a.527.527 0 01-.527.553h-3.286c-.42.59-.93 1.113-1.508 1.55h4.779c.284 0 .528.218.542.501a.527.527 0 01-.527.553h-6.19a.524.524 0 01-.312-.102c-.49.19-1.006.326-1.541.403a6.02 6.02 0 007.989 1.766.527.527 0 01.353-.066l1.52.436a.527.527 0 00.653-.652z"/><path d="M6.023 13.236a6.03 6.03 0 006.023-6.022A6.012 6.012 0 006.023 1.19 6.03 6.03 0 000 7.214c0 1.07.285 2.123.825 3.042a.528.528 0 01.065.354l-.436 1.52a.527.527 0 00.652.653l1.52-.436a.526.526 0 01.354.065c.92.54 1.971.824 3.043.824zm0-2.141a.537.537 0 01-.528-.528c-.012-.284.252-.527.528-.527.295 0 .514.242.527.527.013.285-.251.528-.527.528zm-2.02-5.743c0-1.114.906-2.02 2.02-2.02 1.113 0 2.019.906 2.019 2.02 0 .93-.633 1.716-1.492 1.949v1.29a.527.527 0 01-1.055 0V6.843c0-.29.237-.527.528-.527a.966.966 0 000-1.93.966.966 0 00-.965.965.527.527 0 01-1.054 0z"/></symbol><symbol viewBox="0 0 19 19" id="phone" xmlns="http://www.w3.org/2000/svg"><g clip-path="url(#lclip0)"><path d="M18.483 13.944l-2.652-2.651c-.947-.947-2.556-.569-2.935.663-.284.852-1.231 1.325-2.084 1.136-1.893-.474-4.45-2.936-4.924-4.924-.284-.853.284-1.8 1.137-2.084 1.23-.379 1.61-1.988.663-2.935L5.036.497c-.758-.663-1.894-.663-2.557 0L.68 2.297C-1.12 4.19.87 9.208 5.32 13.66c4.45 4.45 9.47 6.534 11.364 4.64l1.799-1.8c.663-.757.663-1.893 0-2.556z"/></g><defs><clipPath id="lclip0"><path d="M0 0h19v19H0z"/></clipPath></defs></symbol><symbol viewBox="0 0 18 18" id="publications" xmlns="http://www.w3.org/2000/svg"><path d="M15.429 0H2.57A2.572 2.572 0 000 2.571V15.43A2.572 2.572 0 002.571 18H15.43A2.571 2.571 0 0018 15.429V2.57A2.571 2.571 0 0015.429 0zm-11.7 3.214H8.89a.771.771 0 110 1.543H3.73a.771.771 0 110-1.543zm0 3.343H8.87a.771.771 0 110 1.543H3.73a.771.771 0 110-1.543zm10.542 8.229H3.73a.771.771 0 110-1.543h10.54a.771.771 0 110 1.543zm0-3.343H3.73a.771.771 0 110-1.543h10.54a.771.771 0 110 1.543z"/></symbol><symbol viewBox="0 0 18 18" id="question" xmlns="http://www.w3.org/2000/svg"><path d="M9 0C4.037 0 0 4.037 0 9s4.037 9 9 9 9-4.037 9-9-4.037-9-9-9zm0 14.25a.75.75 0 110-1.5.75.75 0 010 1.5zm1.187-4.769a.753.753 0 00-.437.682v.337a.75.75 0 11-1.5 0v-.337A2.26 2.26 0 019.559 8.12c.764-.352 1.316-1.286 1.316-1.744 0-1.033-.84-1.875-1.875-1.875a1.877 1.877 0 00-1.875 1.875.75.75 0 11-1.5 0A3.38 3.38 0 019 3a3.38 3.38 0 013.375 3.375c0 1.013-.879 2.503-2.188 3.106z"/></symbol><symbol viewBox="0 0 20 20" id="question-mark" xmlns="http://www.w3.org/2000/svg"><g clip-path="url(#oclip0)"><path d="M9.73 0c3.46 0 6.865 1.593 6.865 5.404 0 3.515-4.027 4.866-4.892 6.136-.649.945-.432 2.272-2.216 2.272-1.162 0-1.73-.945-1.73-1.81 0-3.219 4.729-3.947 4.729-6.597 0-1.459-.97-2.324-2.593-2.324-3.46 0-2.109 3.567-4.73 3.567-.945 0-1.757-.568-1.757-1.648 0-2.65 3.026-5 6.324-5zm-.135 15.566c1.215 0 2.217 1 2.217 2.218S10.812 20 9.595 20a2.225 2.225 0 01-2.217-2.217 2.227 2.227 0 012.217-2.217z"/></g><defs><clipPath id="oclip0"><path d="M0 0h20v20H0z"/></clipPath></defs></symbol><symbol viewBox="0 0 28 28" id="search" xmlns="http://www.w3.org/2000/svg"><path d="M2.03 25.97a.952.952 0 001.35 0l5.558-5.559a10.476 10.476 0 006.759 2.448c2.818 0 5.47-1.099 7.463-3.092a10.487 10.487 0 003.09-7.463c0-2.818-1.097-5.47-3.09-7.463a10.487 10.487 0 00-7.463-3.091c-2.819 0-5.47 1.098-7.463 3.091a10.487 10.487 0 00-3.092 7.463c0 2.498.863 4.865 2.447 6.758l-5.559 5.56a.954.954 0 000 1.349zm19.78-7.552c-3.37 3.372-8.856 3.371-12.227 0-3.371-3.37-3.371-8.857 0-12.228a8.618 8.618 0 016.114-2.528A8.62 8.62 0 0121.81 6.19c3.37 3.371 3.37 8.857 0 12.228z"/></symbol><symbol viewBox="0 0 24 24" id="user" xmlns="http://www.w3.org/2000/svg"><path d="M12 12.889A6.444 6.444 0 1012 0a6.444 6.444 0 000 12.889zm3.054-3.894c-.293.97-1.549 1.698-3.054 1.698s-2.76-.729-3.054-1.698h6.108zm7.835 10.56v2.125c0 .315-.232.68-.52.809C21.255 22.985 18.214 24 12 24c-6.214 0-9.255-1.015-10.37-1.511-.287-.128-.519-.494-.519-.81v-2.123c0-3.184 2.424-5.825 5.517-6.178a.52.52 0 01.31.085A8.604 8.604 0 0012 15.11a8.603 8.603 0 005.063-1.648.516.516 0 01.31-.085c3.092.354 5.516 2.994 5.516 6.178z"/></symbol></svg>